<mxfile host="app.diagrams.net" modified="2023-09-06T02:31:42.308Z" agent="Mozilla/5.0 (Windows NT 10.0; Win64; x64) AppleWebKit/537.36 (KHTML, like Gecko) Chrome/115.0.0.0 Safari/537.36" etag="03r2y_HW-83izKrt3fKQ" version="21.6.9" type="github">
  <diagram name="第 1 页" id="9_-yBnOzsp-sZ_KjtHhK">
    <mxGraphModel dx="2100" dy="1084" grid="1" gridSize="10" guides="1" tooltips="1" connect="1" arrows="1" fold="1" page="1" pageScale="1" pageWidth="827" pageHeight="1169" math="0" shadow="0">
      <root>
        <mxCell id="0" />
        <mxCell id="1" parent="0" />
        <mxCell id="wc7oDY34y9G1ZZkjA7zT-1" value="&lt;font style=&quot;font-size: 36px;&quot;&gt;A/B测试&lt;span style=&quot;font-family: 宋体;&quot;&gt;指标管理分析系统&lt;br&gt;&lt;br&gt;&lt;br&gt;&lt;br&gt;&lt;br&gt;&lt;br&gt;&lt;br&gt;&lt;br&gt;&lt;br&gt;&lt;br&gt;&lt;br&gt;&lt;br&gt;&lt;br&gt;&lt;br&gt;&lt;br&gt;&lt;br&gt;&lt;/span&gt;&lt;/font&gt;" style="rounded=1;whiteSpace=wrap;html=1;fillColor=#dae8fc;strokeColor=#6c8ebf;arcSize=15;" parent="1" vertex="1">
          <mxGeometry x="330" y="80" width="1200" height="770" as="geometry" />
        </mxCell>
        <mxCell id="R68yoUpeP99hE8_4m0c7-1" value="&lt;font style=&quot;&quot;&gt;&lt;font style=&quot;font-size: 24px;&quot;&gt;指标管理平台&lt;br&gt;&lt;br&gt;&lt;br&gt;&lt;br&gt;&lt;br&gt;&lt;/font&gt;&lt;br&gt;&lt;br&gt;&lt;/font&gt;" style="rounded=0;whiteSpace=wrap;html=1;fillColor=#d5e8d4;strokeColor=#82b366;" parent="1" vertex="1">
          <mxGeometry x="380" y="160" width="360" height="220" as="geometry" />
        </mxCell>
        <mxCell id="R68yoUpeP99hE8_4m0c7-17" style="edgeStyle=orthogonalEdgeStyle;rounded=0;orthogonalLoop=1;jettySize=auto;html=1;exitX=1;exitY=0.5;exitDx=0;exitDy=0;entryX=0;entryY=0.5;entryDx=0;entryDy=0;" parent="1" source="R68yoUpeP99hE8_4m0c7-2" target="R68yoUpeP99hE8_4m0c7-16" edge="1">
          <mxGeometry relative="1" as="geometry" />
        </mxCell>
        <mxCell id="R68yoUpeP99hE8_4m0c7-2" value="&lt;font style=&quot;font-size: 20px;&quot;&gt;前端页面&lt;/font&gt;" style="rounded=1;whiteSpace=wrap;html=1;fillColor=#f8cecc;strokeColor=#b85450;fontSize=20;" parent="1" vertex="1">
          <mxGeometry x="400" y="250" width="140" height="50" as="geometry" />
        </mxCell>
        <mxCell id="R68yoUpeP99hE8_4m0c7-6" value="&lt;font style=&quot;&quot;&gt;&lt;font style=&quot;font-size: 24px;&quot;&gt;指标管理平台数据库&lt;br&gt;&lt;br&gt;Azure SQL Database&lt;/font&gt;&lt;br&gt;&lt;/font&gt;" style="rounded=0;whiteSpace=wrap;html=1;fillColor=#d5e8d4;strokeColor=#82b366;" parent="1" vertex="1">
          <mxGeometry x="800" y="210" width="260" height="130" as="geometry" />
        </mxCell>
        <mxCell id="R68yoUpeP99hE8_4m0c7-7" value="&lt;font style=&quot;&quot;&gt;&lt;font style=&quot;font-size: 24px;&quot;&gt;指标解析器&lt;br&gt;&lt;br&gt;&lt;br&gt;&lt;br&gt;&lt;br&gt;&lt;br&gt;&lt;/font&gt;&lt;br&gt;&lt;/font&gt;" style="rounded=0;whiteSpace=wrap;html=1;fillColor=#d5e8d4;strokeColor=#82b366;" parent="1" vertex="1">
          <mxGeometry x="1090" y="160" width="375" height="230" as="geometry" />
        </mxCell>
        <mxCell id="R68yoUpeP99hE8_4m0c7-44" style="edgeStyle=orthogonalEdgeStyle;rounded=0;orthogonalLoop=1;jettySize=auto;html=1;exitX=0;exitY=0.5;exitDx=0;exitDy=0;entryX=0.5;entryY=1;entryDx=0;entryDy=0;" parent="1" source="R68yoUpeP99hE8_4m0c7-13" target="R68yoUpeP99hE8_4m0c7-18" edge="1">
          <mxGeometry relative="1" as="geometry" />
        </mxCell>
        <mxCell id="R68yoUpeP99hE8_4m0c7-47" value="&lt;font style=&quot;font-size: 18px;&quot;&gt;读入&lt;/font&gt;" style="edgeLabel;html=1;align=center;verticalAlign=middle;resizable=0;points=[];" parent="R68yoUpeP99hE8_4m0c7-44" vertex="1" connectable="0">
          <mxGeometry x="0.1238" y="1" relative="1" as="geometry">
            <mxPoint as="offset" />
          </mxGeometry>
        </mxCell>
        <mxCell id="R68yoUpeP99hE8_4m0c7-13" value="&lt;font style=&quot;&quot;&gt;&lt;font style=&quot;font-size: 24px;&quot;&gt;缓存组件&lt;br&gt;&lt;br&gt;Azure Storage Blob&lt;/font&gt;&lt;br&gt;&lt;/font&gt;" style="rounded=0;whiteSpace=wrap;html=1;fillColor=#d5e8d4;strokeColor=#82b366;" parent="1" vertex="1">
          <mxGeometry x="1270" y="450" width="215" height="120" as="geometry" />
        </mxCell>
        <mxCell id="R68yoUpeP99hE8_4m0c7-15" value="&lt;font style=&quot;font-size: 18px;&quot;&gt;指标计算平台&lt;br&gt;&lt;br&gt;&lt;br&gt;&lt;br&gt;&lt;br&gt;&lt;/font&gt;" style="rounded=0;whiteSpace=wrap;html=1;fillColor=#d5e8d4;strokeColor=#82b366;" parent="1" vertex="1">
          <mxGeometry x="370" y="470" width="786" height="215" as="geometry" />
        </mxCell>
        <mxCell id="DMw9m3U3nENbFU1XHNy3-4" style="edgeStyle=orthogonalEdgeStyle;rounded=0;orthogonalLoop=1;jettySize=auto;html=1;exitX=1;exitY=0.5;exitDx=0;exitDy=0;entryX=0;entryY=0.5;entryDx=0;entryDy=0;" parent="1" source="R68yoUpeP99hE8_4m0c7-16" target="R68yoUpeP99hE8_4m0c7-6" edge="1">
          <mxGeometry relative="1" as="geometry" />
        </mxCell>
        <mxCell id="R68yoUpeP99hE8_4m0c7-16" value="&lt;font style=&quot;font-size: 20px;&quot;&gt;指标管理后端&lt;/font&gt;" style="rounded=1;whiteSpace=wrap;html=1;fillColor=#f8cecc;strokeColor=#b85450;fontSize=20;" parent="1" vertex="1">
          <mxGeometry x="580" y="250" width="140" height="50" as="geometry" />
        </mxCell>
        <mxCell id="R68yoUpeP99hE8_4m0c7-53" style="edgeStyle=orthogonalEdgeStyle;rounded=0;orthogonalLoop=1;jettySize=auto;html=1;exitX=0;exitY=0.5;exitDx=0;exitDy=0;entryX=1;entryY=0.5;entryDx=0;entryDy=0;" parent="1" source="R68yoUpeP99hE8_4m0c7-18" target="R68yoUpeP99hE8_4m0c7-25" edge="1">
          <mxGeometry relative="1" as="geometry">
            <Array as="points">
              <mxPoint x="1080" y="345" />
              <mxPoint x="1080" y="505" />
              <mxPoint x="760" y="505" />
              <mxPoint x="760" y="585" />
            </Array>
          </mxGeometry>
        </mxCell>
        <mxCell id="R68yoUpeP99hE8_4m0c7-54" value="&lt;font style=&quot;font-size: 18px;&quot;&gt;读入&lt;/font&gt;" style="edgeLabel;html=1;align=center;verticalAlign=middle;resizable=0;points=[];" parent="R68yoUpeP99hE8_4m0c7-53" vertex="1" connectable="0">
          <mxGeometry x="0.2406" y="3" relative="1" as="geometry">
            <mxPoint x="1" as="offset" />
          </mxGeometry>
        </mxCell>
        <mxCell id="R68yoUpeP99hE8_4m0c7-18" value="&lt;font style=&quot;font-size: 20px;&quot;&gt;解析结果接口&lt;/font&gt;" style="rounded=1;whiteSpace=wrap;html=1;fillColor=#f8cecc;strokeColor=#b85450;fontSize=20;" parent="1" vertex="1">
          <mxGeometry x="1120" y="320" width="140" height="50" as="geometry" />
        </mxCell>
        <mxCell id="R68yoUpeP99hE8_4m0c7-43" style="edgeStyle=orthogonalEdgeStyle;rounded=0;orthogonalLoop=1;jettySize=auto;html=1;exitX=0.5;exitY=1;exitDx=0;exitDy=0;entryX=0.5;entryY=0;entryDx=0;entryDy=0;" parent="1" source="R68yoUpeP99hE8_4m0c7-19" target="R68yoUpeP99hE8_4m0c7-13" edge="1">
          <mxGeometry relative="1" as="geometry" />
        </mxCell>
        <mxCell id="R68yoUpeP99hE8_4m0c7-48" value="&lt;font style=&quot;font-size: 18px;&quot;&gt;写入&lt;/font&gt;" style="edgeLabel;html=1;align=center;verticalAlign=middle;resizable=0;points=[];" parent="R68yoUpeP99hE8_4m0c7-43" vertex="1" connectable="0">
          <mxGeometry x="-0.2664" y="-2" relative="1" as="geometry">
            <mxPoint as="offset" />
          </mxGeometry>
        </mxCell>
        <mxCell id="R68yoUpeP99hE8_4m0c7-19" value="&lt;font style=&quot;font-size: 20px;&quot;&gt;缓存解析结果&lt;/font&gt;" style="rounded=1;whiteSpace=wrap;html=1;fillColor=#f8cecc;strokeColor=#b85450;fontSize=20;" parent="1" vertex="1">
          <mxGeometry x="1307.5" y="320" width="140" height="50" as="geometry" />
        </mxCell>
        <mxCell id="R68yoUpeP99hE8_4m0c7-41" style="edgeStyle=orthogonalEdgeStyle;rounded=0;orthogonalLoop=1;jettySize=auto;html=1;exitX=1;exitY=0.5;exitDx=0;exitDy=0;entryX=0;entryY=0.5;entryDx=0;entryDy=0;" parent="1" source="R68yoUpeP99hE8_4m0c7-20" target="R68yoUpeP99hE8_4m0c7-21" edge="1">
          <mxGeometry relative="1" as="geometry" />
        </mxCell>
        <mxCell id="R68yoUpeP99hE8_4m0c7-20" value="&lt;font style=&quot;font-size: 20px;&quot;&gt;读入指标&lt;/font&gt;" style="rounded=1;whiteSpace=wrap;html=1;fillColor=#f8cecc;strokeColor=#b85450;fontSize=20;" parent="1" vertex="1">
          <mxGeometry x="1120" y="250" width="140" height="50" as="geometry" />
        </mxCell>
        <mxCell id="R68yoUpeP99hE8_4m0c7-42" style="edgeStyle=orthogonalEdgeStyle;rounded=0;orthogonalLoop=1;jettySize=auto;html=1;exitX=0.5;exitY=1;exitDx=0;exitDy=0;entryX=0.5;entryY=0;entryDx=0;entryDy=0;" parent="1" source="R68yoUpeP99hE8_4m0c7-21" target="R68yoUpeP99hE8_4m0c7-19" edge="1">
          <mxGeometry relative="1" as="geometry" />
        </mxCell>
        <mxCell id="R68yoUpeP99hE8_4m0c7-21" value="&lt;font style=&quot;font-size: 20px;&quot;&gt;指标解析&lt;/font&gt;" style="rounded=1;whiteSpace=wrap;html=1;fillColor=#f8cecc;strokeColor=#b85450;fontSize=20;" parent="1" vertex="1">
          <mxGeometry x="1307.5" y="250" width="140" height="50" as="geometry" />
        </mxCell>
        <mxCell id="R68yoUpeP99hE8_4m0c7-31" style="edgeStyle=orthogonalEdgeStyle;rounded=0;orthogonalLoop=1;jettySize=auto;html=1;exitX=1;exitY=0.5;exitDx=0;exitDy=0;entryX=0.5;entryY=0;entryDx=0;entryDy=0;" parent="1" source="R68yoUpeP99hE8_4m0c7-22" target="R68yoUpeP99hE8_4m0c7-25" edge="1">
          <mxGeometry relative="1" as="geometry" />
        </mxCell>
        <mxCell id="DMw9m3U3nENbFU1XHNy3-6" value="&lt;font style=&quot;font-size: 18px;&quot;&gt;调用&lt;/font&gt;" style="edgeLabel;html=1;align=center;verticalAlign=middle;resizable=0;points=[];" parent="R68yoUpeP99hE8_4m0c7-31" vertex="1" connectable="0">
          <mxGeometry x="-0.2696" y="1" relative="1" as="geometry">
            <mxPoint x="1" as="offset" />
          </mxGeometry>
        </mxCell>
        <mxCell id="R68yoUpeP99hE8_4m0c7-22" value="&lt;font style=&quot;font-size: 20px;&quot;&gt;前端页面&lt;/font&gt;" style="rounded=1;whiteSpace=wrap;html=1;fillColor=#f8cecc;strokeColor=#b85450;fontSize=20;" parent="1" vertex="1">
          <mxGeometry x="390" y="490" width="140" height="50" as="geometry" />
        </mxCell>
        <mxCell id="R68yoUpeP99hE8_4m0c7-32" style="edgeStyle=orthogonalEdgeStyle;rounded=0;orthogonalLoop=1;jettySize=auto;html=1;exitX=1;exitY=0.5;exitDx=0;exitDy=0;entryX=0.5;entryY=1;entryDx=0;entryDy=0;" parent="1" source="R68yoUpeP99hE8_4m0c7-23" target="R68yoUpeP99hE8_4m0c7-25" edge="1">
          <mxGeometry relative="1" as="geometry" />
        </mxCell>
        <mxCell id="DMw9m3U3nENbFU1XHNy3-7" value="&lt;font style=&quot;font-size: 18px;&quot;&gt;调用&lt;/font&gt;" style="edgeLabel;html=1;align=center;verticalAlign=middle;resizable=0;points=[];" parent="R68yoUpeP99hE8_4m0c7-32" vertex="1" connectable="0">
          <mxGeometry x="-0.1702" y="-2" relative="1" as="geometry">
            <mxPoint x="1" as="offset" />
          </mxGeometry>
        </mxCell>
        <mxCell id="R68yoUpeP99hE8_4m0c7-23" value="&lt;font style=&quot;font-size: 20px;&quot;&gt;公共接口&lt;/font&gt;" style="rounded=1;whiteSpace=wrap;html=1;fillColor=#f8cecc;strokeColor=#b85450;fontSize=20;" parent="1" vertex="1">
          <mxGeometry x="390" y="610" width="140" height="50" as="geometry" />
        </mxCell>
        <mxCell id="R68yoUpeP99hE8_4m0c7-57" style="edgeStyle=orthogonalEdgeStyle;rounded=0;orthogonalLoop=1;jettySize=auto;html=1;exitX=0.5;exitY=1;exitDx=0;exitDy=0;entryX=1;entryY=0.5;entryDx=0;entryDy=0;" parent="1" source="R68yoUpeP99hE8_4m0c7-24" target="R68yoUpeP99hE8_4m0c7-30" edge="1">
          <mxGeometry relative="1" as="geometry" />
        </mxCell>
        <mxCell id="R68yoUpeP99hE8_4m0c7-58" value="&lt;font style=&quot;font-size: 18px;&quot;&gt;写入&lt;/font&gt;" style="edgeLabel;html=1;align=center;verticalAlign=middle;resizable=0;points=[];" parent="R68yoUpeP99hE8_4m0c7-57" vertex="1" connectable="0">
          <mxGeometry x="-0.6705" y="-3" relative="1" as="geometry">
            <mxPoint as="offset" />
          </mxGeometry>
        </mxCell>
        <mxCell id="R68yoUpeP99hE8_4m0c7-24" value="&lt;font style=&quot;font-size: 20px;&quot;&gt;任务计算&lt;/font&gt;" style="rounded=1;whiteSpace=wrap;html=1;fillColor=#f8cecc;strokeColor=#b85450;fontSize=20;" parent="1" vertex="1">
          <mxGeometry x="990" y="570" width="140" height="50" as="geometry" />
        </mxCell>
        <mxCell id="-7082hjR_KVR-ediinlZ-6" style="edgeStyle=orthogonalEdgeStyle;rounded=0;orthogonalLoop=1;jettySize=auto;html=1;exitX=0.5;exitY=1;exitDx=0;exitDy=0;entryX=0.5;entryY=0;entryDx=0;entryDy=0;" edge="1" parent="1" source="R68yoUpeP99hE8_4m0c7-25" target="R68yoUpeP99hE8_4m0c7-30">
          <mxGeometry relative="1" as="geometry" />
        </mxCell>
        <mxCell id="-7082hjR_KVR-ediinlZ-7" value="&lt;span style=&quot;font-size: 18px;&quot;&gt;写入&lt;/span&gt;" style="edgeLabel;html=1;align=center;verticalAlign=middle;resizable=0;points=[];" vertex="1" connectable="0" parent="-7082hjR_KVR-ediinlZ-6">
          <mxGeometry x="-0.0114" y="-5" relative="1" as="geometry">
            <mxPoint y="-1" as="offset" />
          </mxGeometry>
        </mxCell>
        <mxCell id="R68yoUpeP99hE8_4m0c7-25" value="&lt;font style=&quot;font-size: 20px;&quot;&gt;创建计算任务&lt;/font&gt;" style="rounded=1;whiteSpace=wrap;html=1;fillColor=#f8cecc;strokeColor=#b85450;fontSize=20;" parent="1" vertex="1">
          <mxGeometry x="580" y="560" width="140" height="50" as="geometry" />
        </mxCell>
        <mxCell id="R68yoUpeP99hE8_4m0c7-38" style="edgeStyle=orthogonalEdgeStyle;rounded=0;orthogonalLoop=1;jettySize=auto;html=1;exitX=1;exitY=0.5;exitDx=0;exitDy=0;entryX=0;entryY=0.5;entryDx=0;entryDy=0;" parent="1" source="R68yoUpeP99hE8_4m0c7-26" target="R68yoUpeP99hE8_4m0c7-24" edge="1">
          <mxGeometry relative="1" as="geometry" />
        </mxCell>
        <mxCell id="R68yoUpeP99hE8_4m0c7-26" value="&lt;font style=&quot;font-size: 20px;&quot;&gt;任务排队&lt;/font&gt;" style="rounded=1;whiteSpace=wrap;html=1;fillColor=#f8cecc;strokeColor=#b85450;fontSize=20;" parent="1" vertex="1">
          <mxGeometry x="820" y="570" width="140" height="50" as="geometry" />
        </mxCell>
        <mxCell id="R68yoUpeP99hE8_4m0c7-37" style="edgeStyle=orthogonalEdgeStyle;rounded=0;orthogonalLoop=1;jettySize=auto;html=1;exitX=1;exitY=0.5;exitDx=0;exitDy=0;entryX=0.5;entryY=1;entryDx=0;entryDy=0;" parent="1" source="R68yoUpeP99hE8_4m0c7-30" target="R68yoUpeP99hE8_4m0c7-26" edge="1">
          <mxGeometry relative="1" as="geometry" />
        </mxCell>
        <mxCell id="R68yoUpeP99hE8_4m0c7-55" value="&lt;font style=&quot;font-size: 18px;&quot;&gt;读入&lt;/font&gt;" style="edgeLabel;html=1;align=center;verticalAlign=middle;resizable=0;points=[];" parent="R68yoUpeP99hE8_4m0c7-37" vertex="1" connectable="0">
          <mxGeometry x="0.157" y="-1" relative="1" as="geometry">
            <mxPoint as="offset" />
          </mxGeometry>
        </mxCell>
        <mxCell id="R68yoUpeP99hE8_4m0c7-30" value="&lt;font style=&quot;&quot;&gt;&lt;font style=&quot;font-size: 24px;&quot;&gt;指标计算平台数据库&lt;br&gt;&lt;br&gt;Azure SQL Database&lt;/font&gt;&lt;br&gt;&lt;/font&gt;" style="rounded=0;whiteSpace=wrap;html=1;fillColor=#d5e8d4;strokeColor=#82b366;" parent="1" vertex="1">
          <mxGeometry x="500" y="710" width="300" height="130" as="geometry" />
        </mxCell>
        <mxCell id="DMw9m3U3nENbFU1XHNy3-1" style="edgeStyle=orthogonalEdgeStyle;rounded=0;orthogonalLoop=1;jettySize=auto;html=1;exitX=1;exitY=0.5;exitDx=0;exitDy=0;entryX=0;entryY=0.5;entryDx=0;entryDy=0;" parent="1" source="R68yoUpeP99hE8_4m0c7-6" target="R68yoUpeP99hE8_4m0c7-20" edge="1">
          <mxGeometry relative="1" as="geometry" />
        </mxCell>
        <mxCell id="-7082hjR_KVR-ediinlZ-1" style="edgeStyle=orthogonalEdgeStyle;rounded=0;orthogonalLoop=1;jettySize=auto;html=1;exitX=0.5;exitY=1;exitDx=0;exitDy=0;" edge="1" parent="1" source="DMw9m3U3nENbFU1XHNy3-3">
          <mxGeometry relative="1" as="geometry">
            <mxPoint x="650" y="560" as="targetPoint" />
          </mxGeometry>
        </mxCell>
        <mxCell id="-7082hjR_KVR-ediinlZ-2" value="&lt;font style=&quot;font-size: 18px;&quot;&gt;读入&lt;/font&gt;" style="edgeLabel;html=1;align=center;verticalAlign=middle;resizable=0;points=[];" vertex="1" connectable="0" parent="-7082hjR_KVR-ediinlZ-1">
          <mxGeometry x="-0.534" relative="1" as="geometry">
            <mxPoint as="offset" />
          </mxGeometry>
        </mxCell>
        <mxCell id="DMw9m3U3nENbFU1XHNy3-3" value="&lt;font style=&quot;font-size: 20px;&quot;&gt;指标信息接口&lt;/font&gt;" style="rounded=1;whiteSpace=wrap;html=1;fillColor=#f8cecc;strokeColor=#b85450;fontSize=20;" parent="1" vertex="1">
          <mxGeometry x="580" y="315" width="140" height="50" as="geometry" />
        </mxCell>
        <mxCell id="DMw9m3U3nENbFU1XHNy3-11" style="edgeStyle=orthogonalEdgeStyle;rounded=0;orthogonalLoop=1;jettySize=auto;html=1;exitX=1;exitY=0.5;exitDx=0;exitDy=0;entryX=0;entryY=0.5;entryDx=0;entryDy=0;" parent="1" source="DMw9m3U3nENbFU1XHNy3-10" target="R68yoUpeP99hE8_4m0c7-22" edge="1">
          <mxGeometry relative="1" as="geometry" />
        </mxCell>
        <mxCell id="DMw9m3U3nENbFU1XHNy3-10" value="&lt;font style=&quot;font-size: 24px;&quot;&gt;浏览器&lt;br&gt;&lt;/font&gt;" style="rounded=1;whiteSpace=wrap;html=1;fillColor=#dae8fc;strokeColor=#6c8ebf;" parent="1" vertex="1">
          <mxGeometry x="10" y="470" width="210" height="90" as="geometry" />
        </mxCell>
        <mxCell id="-7082hjR_KVR-ediinlZ-3" style="edgeStyle=orthogonalEdgeStyle;rounded=0;orthogonalLoop=1;jettySize=auto;html=1;exitX=1;exitY=0.5;exitDx=0;exitDy=0;entryX=0;entryY=0.5;entryDx=0;entryDy=0;" edge="1" parent="1" source="DMw9m3U3nENbFU1XHNy3-12" target="R68yoUpeP99hE8_4m0c7-23">
          <mxGeometry relative="1" as="geometry" />
        </mxCell>
        <mxCell id="DMw9m3U3nENbFU1XHNy3-12" value="&lt;font style=&quot;font-size: 24px;&quot;&gt;其他系统&lt;br&gt;&lt;/font&gt;" style="rounded=1;whiteSpace=wrap;html=1;fillColor=#dae8fc;strokeColor=#6c8ebf;" parent="1" vertex="1">
          <mxGeometry x="10" y="592.5" width="210" height="85" as="geometry" />
        </mxCell>
        <mxCell id="-7082hjR_KVR-ediinlZ-5" style="edgeStyle=orthogonalEdgeStyle;rounded=0;orthogonalLoop=1;jettySize=auto;html=1;exitX=1;exitY=0.5;exitDx=0;exitDy=0;" edge="1" parent="1" source="-7082hjR_KVR-ediinlZ-4" target="R68yoUpeP99hE8_4m0c7-2">
          <mxGeometry relative="1" as="geometry" />
        </mxCell>
        <mxCell id="-7082hjR_KVR-ediinlZ-4" value="&lt;font style=&quot;font-size: 24px;&quot;&gt;浏览器&lt;br&gt;&lt;/font&gt;" style="rounded=1;whiteSpace=wrap;html=1;fillColor=#dae8fc;strokeColor=#6c8ebf;" vertex="1" parent="1">
          <mxGeometry x="10" y="230" width="210" height="90" as="geometry" />
        </mxCell>
      </root>
    </mxGraphModel>
  </diagram>
</mxfile>
